{
  "accessors": [
    {
      "bufferView": 2,
      "componentType": 5126,
      "count": 42166,
      "max": [
        1.4812716245651245,
        1.2544784545898438,
        0.8259063363075256
      ],
      "min": [
        0.17241835594177246,
        -3.1680185794830322,
        -0.018812505528330803
      ],
      "type": "VEC3"
    },
    {
      "bufferView": 2,
      "byteOffset": 505992,
      "componentType": 5126,
      "count": 42166,
      "max": [
        0.9999975562095642,
        0.9999996423721313,
        0.999999463558197
      ],
      "min": [
        -0.999999463558197,
        -0.9970397353172302,
        -0.9999982714653015
      ],
      "type": "VEC3"
    },
    {
      "bufferView": 1,
      "componentType": 5126,
      "count": 42166,
      "max": [
        0.9986949563026428,
        0.9913749694824219
      ],
      "min": [
        0.00040508905658498406,
        0.0010550918523222208
      ],
      "type": "VEC2"
    },
    {
      "bufferView": 1,
      "byteOffset": 337328,
      "componentType": 5126,
      "count": 42166,
      "max": [
        0.9986949563026428,
        0.9913749694824219
      ],
      "min": [
        0.00040508905658498406,
        0.0010550918523222208
      ],
      "type": "VEC2"
    },
    {
      "bufferView": 1,
      "byteOffset": 674656,
      "componentType": 5126,
      "count": 42166,
      "max": [
        0.9986949563026428,
        0.9913749694824219
      ],
      "min": [
        0.00040508905658498406,
        0.0010550918523222208
      ],
      "type": "VEC2"
    },
    {
      "bufferView": 1,
      "byteOffset": 1011984,
      "componentType": 5126,
      "count": 42166,
      "max": [
        0.9986949563026428,
        0.9913749694824219
      ],
      "min": [
        0.00040508905658498406,
        0.0010550918523222208
      ],
      "type": "VEC2"
    },
    {
      "bufferView": 1,
      "byteOffset": 1349312,
      "componentType": 5126,
      "count": 42166,
      "max": [
        0.9986949563026428,
        0.9913749694824219
      ],
      "min": [
        0.00040508905658498406,
        0.0010550918523222208
      ],
      "type": "VEC2"
    },
    {
      "bufferView": 0,
      "componentType": 5125,
      "count": 232320,
      "type": "SCALAR"
    }
  ],
  "asset": {
    "extras": {
      "author": "nghm@uos (https://sketchfab.com/chrass)",
      "license": "CC-BY-NC-SA-4.0 (http://creativecommons.org/licenses/by-nc-sa/4.0/)",
      "source": "https://sketchfab.com/3d-models/der-gefesselte-4c86cd2934714004b87f735b552c0739",
      "title": "Der Gefesselte"
    },
    "generator": "Sketchfab-15.40.0",
    "version": "2.0"
  },
  "bufferViews": [
    {
      "buffer": 0,
      "byteLength": 929280,
      "name": "floatBufferViews",
      "target": 34963
    },
    {
      "buffer": 0,
      "byteLength": 1686640,
      "byteOffset": 929280,
      "byteStride": 8,
      "name": "floatBufferViews",
      "target": 34962
    },
    {
      "buffer": 0,
      "byteLength": 1011984,
      "byteOffset": 2615920,
      "byteStride": 12,
      "name": "floatBufferViews",
      "target": 34962
    }
  ],
  "buffers": [
    {
      "byteLength": 3627904,
      "uri": "scene.bin"
    }
  ],
  "extensionsUsed": [
    "KHR_materials_unlit"
  ],
  "images": [
    {
      "uri": "textures/material_0_baseColor.jpeg"
    }
  ],
  "materials": [
    {
      "extensions": {
        "KHR_materials_unlit": {}
      },
      "name": "material_0",
      "pbrMetallicRoughness": {
        "baseColorTexture": {
          "index": 0
        },
        "metallicFactor": 0.0
      }
    }
  ],
  "meshes": [
    {
      "name": "Object_0",
      "primitives": [
        {
          "attributes": {
            "NORMAL": 1,
            "POSITION": 0,
            "TEXCOORD_0": 2,
            "TEXCOORD_1": 3,
            "TEXCOORD_2": 4,
            "TEXCOORD_3": 5,
            "TEXCOORD_4": 6
          },
          "indices": 7,
          "material": 0,
          "mode": 4
        }
      ]
    }
  ],
  "nodes": [
    {
      "children": [
        1
      ],
      "matrix": [
        1.1212185621261597,
        -1.803056935035213e-16,
        -1.803056935035214e-16,
        0.0,
        -1.8030569350352135e-16,
        4.2926622616543614e-16,
        -1.1212185621261597,
        0.0,
        1.8030569350352135e-16,
        1.1212185621261597,
        4.2926622616543614e-16,
        0.0,
        0.0,
        0.0,
        0.0,
        1.0
      ],
      "name": "Sketchfab_model"
    },
    {
      "children": [
        2
      ],
      "name": "root"
    },
    {
      "children": [
        3
      ],
      "matrix": [
        1.0,
        0.0,
        0.0,
        0.0,
        0.0,
        2.220446049250313e-16,
        1.0,
        0.0,
        0.0,
        -1.0,
        2.220446049250313e-16,
        0.0,
        0.0,
        0.0,
        0.0,
        1.0
      ],
      "name": "GLTF_SceneRootNode"
    },
    {
      "children": [
        4
      ],
      "name": "_0"
    },
    {
      "mesh": 0,
      "name": "Object_4"
    }
  ],
  "samplers": [
    {
      "magFilter": 9729,
      "minFilter": 9987,
      "wrapS": 10497,
      "wrapT": 10497
    }
  ],
  "scene": 0,
  "scenes": [
    {
      "name": "Sketchfab_Scene",
      "nodes": [
        0
      ]
    }
  ],
  "textures": [
    {
      "sampler": 0,
      "source": 0
    }
  ]
}
