{
  "accessors": [
    {
      "bufferView": 2,
      "componentType": 5126,
      "count": 39033,
      "max": [
        0.5220777988433838,
        0.9662115573883057,
        0.2599527835845947
      ],
      "min": [
        -0.46105828881263733,
        -0.15485291182994843,
        -0.8236304521560669
      ],
      "type": "VEC3"
    },
    {
      "bufferView": 2,
      "byteOffset": 468396,
      "componentType": 5126,
      "count": 39033,
      "max": [
        0.9999988675117493,
        0.9999995827674866,
        0.9999991655349731
      ],
      "min": [
        -0.9999998807907104,
        -0.9994978904724121,
        -0.9999997615814209
      ],
      "type": "VEC3"
    },
    {
      "bufferView": 1,
      "componentType": 5126,
      "count": 39033,
      "max": [
        0.9998897910118103,
        0.9974107146263123
      ],
      "min": [
        7.233526412164792e-05,
        8.781666110735387e-05
      ],
      "type": "VEC2"
    },
    {
      "bufferView": 1,
      "byteOffset": 312264,
      "componentType": 5126,
      "count": 39033,
      "max": [
        0.9998897910118103,
        0.9974107146263123
      ],
      "min": [
        7.233526412164792e-05,
        8.781666110735387e-05
      ],
      "type": "VEC2"
    },
    {
      "bufferView": 1,
      "byteOffset": 624528,
      "componentType": 5126,
      "count": 39033,
      "max": [
        0.9998897910118103,
        0.9974107146263123
      ],
      "min": [
        7.233526412164792e-05,
        8.781666110735387e-05
      ],
      "type": "VEC2"
    },
    {
      "bufferView": 0,
      "componentType": 5125,
      "count": 170415,
      "type": "SCALAR"
    }
  ],
  "asset": {
    "extras": {
      "author": "nghm@uos (https://sketchfab.com/chrass)",
      "license": "CC-BY-4.0 (http://creativecommons.org/licenses/by/4.0/)",
      "source": "https://sketchfab.com/3d-models/modell-alte-synagoge-1de6fcf135654a91bb84e7c6434fe382",
      "title": "Modell \"Alte Synagoge\""
    },
    "generator": "Sketchfab-16.75.0",
    "version": "2.0"
  },
  "bufferViews": [
    {
      "buffer": 0,
      "byteLength": 681660,
      "name": "floatBufferViews",
      "target": 34963
    },
    {
      "buffer": 0,
      "byteLength": 936792,
      "byteOffset": 681660,
      "byteStride": 8,
      "name": "floatBufferViews",
      "target": 34962
    },
    {
      "buffer": 0,
      "byteLength": 936792,
      "byteOffset": 1618452,
      "byteStride": 12,
      "name": "floatBufferViews",
      "target": 34962
    }
  ],
  "buffers": [
    {
      "byteLength": 2555244,
      "uri": "scene.bin"
    }
  ],
  "extensionsUsed": [
    "KHR_materials_unlit"
  ],
  "images": [
    {
      "uri": "textures/material_0_baseColor.jpeg"
    }
  ],
  "materials": [
    {
      "extensions": {
        "KHR_materials_unlit": {}
      },
      "name": "material_0",
      "pbrMetallicRoughness": {
        "baseColorTexture": {
          "index": 0
        },
        "metallicFactor": 0.0
      }
    }
  ],
  "meshes": [
    {
      "name": "Object_0",
      "primitives": [
        {
          "attributes": {
            "NORMAL": 1,
            "POSITION": 0,
            "TEXCOORD_0": 2,
            "TEXCOORD_1": 3,
            "TEXCOORD_2": 4
          },
          "indices": 5,
          "material": 0,
          "mode": 4
        }
      ]
    }
  ],
  "nodes": [
    {
      "children": [
        1
      ],
      "matrix": [
        7.161958905757217,
        -0.052618700788299666,
        -1.1683698628206433e-17,
        0.0,
        0.0,
        1.5903172757223945e-15,
        -7.162152290344238,
        0.0,
        0.052618700788299666,
        7.161958905757217,
        1.5902743357181708e-15,
        0.0,
        0.0,
        0.0,
        0.0,
        1.0
      ],
      "name": "Sketchfab_model"
    },
    {
      "children": [
        2
      ],
      "name": "root"
    },
    {
      "children": [
        3
      ],
      "matrix": [
        1.0,
        0.0,
        0.0,
        0.0,
        0.0,
        2.220446049250313e-16,
        1.0,
        0.0,
        0.0,
        -1.0,
        2.220446049250313e-16,
        0.0,
        0.0,
        0.0,
        0.0,
        1.0
      ],
      "name": "GLTF_SceneRootNode"
    },
    {
      "children": [
        4
      ],
      "name": "_0"
    },
    {
      "mesh": 0,
      "name": "Object_4"
    }
  ],
  "samplers": [
    {
      "magFilter": 9729,
      "minFilter": 9987,
      "wrapS": 10497,
      "wrapT": 10497
    }
  ],
  "scene": 0,
  "scenes": [
    {
      "name": "Sketchfab_Scene",
      "nodes": [
        0
      ]
    }
  ],
  "textures": [
    {
      "sampler": 0,
      "source": 0
    }
  ]
}
